<?xml version="1.0" encoding="UTF-8"?>
<svg viewBox="0 0 72 72" version="1.1" xmlns="http://www.w3.org/2000/svg">
    <title>GitHub</title>
    <g stroke="none" stroke-width="1" fill="none" fill-rule="evenodd">
        <path d="M8,72 L64,72 C68.418278,72 72,68.418278 72,64 L72,8 C72,3.581722 68.418278,0 64,0 L8,0 C3.581722,0 0,3.581722 0,8 L0,64 C0,68.418278 3.581722,72 8,72 Z" fill="#000000"></path>
        <path d="M36,16 C24.954,16 16,25.065 16,36.253 C16,45.188 21.74,52.81 29.678,55.467 C30.678,55.659 31.046,55.032 31.046,54.499 C31.046,54.022 31.028,52.521 31.018,50.973 C25.462,52.234 24.296,48.517 24.296,48.517 C23.392,46.183 22.094,45.56 22.094,45.56 C20.304,44.338 22.228,44.362 22.228,44.362 C24.206,44.504 25.248,46.408 25.248,46.408 C27.012,49.5 29.904,48.572 31.082,48.058 C31.26,46.838 31.774,46.01 32.34,45.193 C27.932,44.368 23.292,42.67 23.292,34.94 C23.292,32.734 24.064,30.934 25.284,29.534 C25.078,29.012 24.39,26.964 25.474,24.194 C25.474,24.194 27.138,23.636 30.994,26.23 C32.554,25.778 34.284,25.55 36,25.542 C37.716,25.55 39.448,25.778 41.012,26.23 C44.862,23.636 46.522,24.194 46.522,24.194 C47.61,26.964 46.922,29.012 46.716,29.534 C47.94,30.934 48.704,32.734 48.704,34.94 C48.704,42.686 44.054,44.362 39.632,45.172 C40.342,45.808 40.972,47.054 40.972,48.946 C40.972,51.64 40.948,53.81 40.948,54.499 C40.948,55.038 41.31,55.67 42.332,55.464 C50.266,52.804 56,45.184 56,36.253 C56,25.065 47.046,16 36,16 Z" fill="#FFFFFF"></path>
    </g>
</svg>
