<svg width="121" height="98" viewBox="0 0 121 98" fill="none" xmlns="http://www.w3.org/2000/svg">
<path d="M101.141 2.53042C91.1691 1.33333 77.4595 0.25 60.5 0.25C43.5404 0.25 29.8308 1.33333 19.8587 2.53042C9.01996 3.83042 0.916626 13.1092 0.916626 24.0292V73.9762C0.916626 84.8908 9.01996 94.1696 19.8587 95.475C29.8308 96.6667 43.5404 97.75 60.5 97.75C77.4595 97.75 91.1691 96.6667 101.141 95.4696C111.98 94.1642 120.083 84.8908 120.083 73.9708V24.0292C120.083 13.1092 111.98 3.83042 101.141 2.53042Z" fill="url(#paint0_linear_2003_377)"/>
<path d="M60.5 2.95833C74.7566 2.95833 88.32 3.72208 100.816 5.2225C110.257 6.35458 117.375 14.4417 117.375 24.0292V73.9762C117.375 83.5638 110.257 91.6508 100.816 92.7829C88.32 94.2779 74.7566 95.0417 60.5 95.0417C46.2433 95.0417 32.68 94.2779 20.1837 92.7775C10.7425 91.6454 3.62496 83.5583 3.62496 73.9708V24.0292C3.62496 14.4417 10.7425 6.35458 20.1837 5.2225C32.68 3.72208 46.2433 2.95833 60.5 2.95833ZM60.5 0.25C43.5404 0.25 29.8308 1.33333 19.8587 2.53042C9.01996 3.83042 0.916626 13.1092 0.916626 24.0292V73.9762C0.916626 84.8908 9.01996 94.1696 19.8587 95.475C29.8308 96.6667 43.5404 97.75 60.5 97.75C77.4595 97.75 91.1691 96.6667 101.141 95.4696C111.98 94.1642 120.083 84.8908 120.083 73.9708V24.0292C120.083 13.1146 111.98 3.83583 101.141 2.53042C91.1691 1.33333 77.4595 0.25 60.5 0.25Z" fill="url(#paint1_linear_2003_377)"/>
<path d="M79.5667 44.1466L53.3175 26.6454C51.5246 25.4537 49.2171 25.3346 47.3321 26.3529C45.4363 27.3712 44.25 29.3483 44.25 31.4987V66.5012C44.25 68.6571 45.4363 70.6287 47.3321 71.6471C48.1933 72.1075 49.1412 72.335 50.0837 72.335C51.2158 72.335 52.3425 72.0046 53.3175 71.3546L79.5667 53.8533C81.1917 52.77 82.1667 50.95 82.1667 49C82.1667 47.05 81.1917 45.23 79.5667 44.1466Z" fill="url(#paint2_linear_2003_377)"/>
<defs>
<linearGradient id="paint0_linear_2003_377" x1="13.7173" y1="2.21734" x2="107.283" y2="95.7827" gradientUnits="userSpaceOnUse">
<stop stop-color="white" stop-opacity="0.6"/>
<stop offset="1" stop-color="white" stop-opacity="0.3"/>
</linearGradient>
<linearGradient id="paint1_linear_2003_377" x1="13.7173" y1="2.21734" x2="107.283" y2="95.7827" gradientUnits="userSpaceOnUse">
<stop stop-color="white" stop-opacity="0.6"/>
<stop offset="0.4927" stop-color="white" stop-opacity="0"/>
<stop offset="0.9971" stop-color="white" stop-opacity="0.3"/>
</linearGradient>
<linearGradient id="paint2_linear_2003_377" x1="39.395" y1="33.9373" x2="69.5204" y2="64.0626" gradientUnits="userSpaceOnUse">
<stop stop-color="white" stop-opacity="0.7"/>
<stop offset="0.5188" stop-color="white" stop-opacity="0.45"/>
<stop offset="0.9998" stop-color="white" stop-opacity="0.55"/>
</linearGradient>
</defs>
</svg>
